<?xml version="1.0" standalone="no"?>
<!DOCTYPE svg PUBLIC "-//W3C//DTD SVG 20010904//EN"
 "http://www.w3.org/TR/2001/REC-SVG-20010904/DTD/svg10.dtd">
<svg version="1.0" xmlns="http://www.w3.org/2000/svg"
 width="1024.000000pt" height="1024.000000pt" viewBox="0 0 1024.000000 1024.000000"
 preserveAspectRatio="xMidYMid meet">
<metadata>
Created by potrace 1.14, written by Peter Selinger 2001-2017
</metadata>
<g transform="translate(0.000000,1024.000000) scale(0.100000,-0.100000)"
fill="#000000" stroke="none">
<path d="M4370 8445 c-255 -40 -485 -159 -670 -344 -372 -373 -465 -926 -236
-1397 158 -322 439 -553 794 -651 l97 -27 418 -4 418 -3 52 24 c119 54 178
142 185 273 4 71 1 89 -20 136 -33 71 -75 118 -140 154 l-53 29 -375 6 c-310
5 -385 9 -435 24 -203 58 -368 223 -419 421 -20 78 -21 222 -1 299 42 166 160
309 315 383 47 22 109 45 138 51 37 8 537 11 1651 11 1558 0 1600 0 1675 -20
110 -28 190 -74 271 -155 113 -113 162 -223 172 -385 10 -180 -41 -314 -172
-446 -86 -87 -178 -141 -280 -162 -31 -7 -329 -13 -770 -17 l-720 -7 -75 -24
c-96 -31 -163 -70 -238 -139 -74 -69 -136 -162 -170 -257 -23 -65 -26 -94 -32
-268 -8 -225 -17 -263 -86 -339 -104 -116 -127 -121 -590 -121 -409 0 -473 -6
-614 -61 -132 -51 -226 -113 -336 -223 -208 -207 -284 -406 -284 -740 0 -142
-2 -165 -20 -193 -11 -18 -30 -35 -42 -38 -13 -2 -311 -6 -663 -9 -407 -2
-660 -8 -696 -15 -189 -37 -380 -118 -515 -219 -99 -74 -235 -215 -297 -309
-187 -282 -251 -637 -172 -961 113 -463 450 -797 925 -915 85 -21 93 -21 1742
-24 1841 -4 1760 -6 1966 62 485 162 809 596 829 1110 10 275 -53 502 -204
728 -177 267 -440 444 -768 520 -85 19 -127 21 -747 24 l-657 4 -25 26 c-34
33 -40 71 -34 217 9 196 60 291 196 358 l67 33 430 6 c364 4 439 8 490 22 182
53 319 130 441 252 188 186 277 395 291 679 6 115 9 131 30 156 l23 28 668 5
c643 4 671 5 767 26 225 50 422 153 583 306 121 114 199 220 268 359 195 400
155 881 -103 1244 -170 239 -400 394 -713 481 l-95 26 -1675 2 c-1360 1 -1691
-1 -1760 -12z m1470 -4869 c79 -26 178 -80 232 -126 60 -52 139 -170 168 -251
30 -88 38 -240 16 -333 -38 -162 -161 -317 -307 -389 -145 -71 -40 -68 -1832
-65 l-1612 3 -75 27 c-180 66 -310 198 -372 378 -33 96 -32 266 1 368 69 211
256 369 475 402 28 4 771 7 1651 6 1523 -1 1603 -2 1655 -20z"/>
</g>
</svg>
